<mxfile host="Electron" modified="2023-12-17T07:57:07.758Z" agent="Mozilla/5.0 (Windows NT 10.0; Win64; x64) AppleWebKit/537.36 (KHTML, like Gecko) draw.io/22.1.2 Chrome/114.0.5735.289 Electron/25.9.4 Safari/537.36" etag="-JRf_Exsqns0pmZo8Jve" version="22.1.2" type="device">
  <diagram name="第 1 页" id="oBB3p8zH_U1W6c74gE0D">
    <mxGraphModel dx="2345" dy="1216" grid="1" gridSize="10" guides="1" tooltips="1" connect="1" arrows="1" fold="1" page="1" pageScale="1" pageWidth="827" pageHeight="1169" math="0" shadow="0">
      <root>
        <mxCell id="0" />
        <mxCell id="1" parent="0" />
        <mxCell id="9lVelVRK41Ti5xzRwSH0-1" value="前端APP应用" style="verticalAlign=top;align=left;spacingTop=8;spacingLeft=2;spacingRight=12;shape=cube;size=10;direction=south;fontStyle=4;html=1;whiteSpace=wrap;fillColor=#00FFFF;" vertex="1" parent="1">
          <mxGeometry x="170" y="70" width="460" height="390" as="geometry" />
        </mxCell>
        <mxCell id="9lVelVRK41Ti5xzRwSH0-2" value="UI" style="verticalAlign=top;align=left;spacingTop=8;spacingLeft=2;spacingRight=12;shape=cube;size=10;direction=south;fontStyle=4;html=1;whiteSpace=wrap;fillColor=#00CCCC;" vertex="1" parent="1">
          <mxGeometry x="180" y="110" width="430" height="110" as="geometry" />
        </mxCell>
        <mxCell id="9lVelVRK41Ti5xzRwSH0-3" value="登录界面" style="shape=folder;fontStyle=1;spacingTop=10;tabWidth=40;tabHeight=14;tabPosition=left;html=1;whiteSpace=wrap;" vertex="1" parent="1">
          <mxGeometry x="225" y="140" width="70" height="50" as="geometry" />
        </mxCell>
        <mxCell id="9lVelVRK41Ti5xzRwSH0-4" value="预约界面" style="shape=folder;fontStyle=1;spacingTop=10;tabWidth=40;tabHeight=14;tabPosition=left;html=1;whiteSpace=wrap;" vertex="1" parent="1">
          <mxGeometry x="315" y="140" width="70" height="50" as="geometry" />
        </mxCell>
        <mxCell id="9lVelVRK41Ti5xzRwSH0-5" value="支付界面" style="shape=folder;fontStyle=1;spacingTop=10;tabWidth=40;tabHeight=14;tabPosition=left;html=1;whiteSpace=wrap;" vertex="1" parent="1">
          <mxGeometry x="404" y="140" width="70" height="50" as="geometry" />
        </mxCell>
        <mxCell id="9lVelVRK41Ti5xzRwSH0-6" value="信息界面" style="shape=folder;fontStyle=1;spacingTop=10;tabWidth=40;tabHeight=14;tabPosition=left;html=1;whiteSpace=wrap;" vertex="1" parent="1">
          <mxGeometry x="495" y="140" width="70" height="50" as="geometry" />
        </mxCell>
        <mxCell id="9lVelVRK41Ti5xzRwSH0-7" value="Bean" style="verticalAlign=top;align=left;spacingTop=8;spacingLeft=2;spacingRight=12;shape=cube;size=10;direction=south;fontStyle=4;html=1;whiteSpace=wrap;fillColor=#00CCCC;" vertex="1" parent="1">
          <mxGeometry x="180" y="220" width="430" height="110" as="geometry" />
        </mxCell>
        <mxCell id="9lVelVRK41Ti5xzRwSH0-8" value="Utils" style="verticalAlign=top;align=left;spacingTop=8;spacingLeft=2;spacingRight=12;shape=cube;size=10;direction=south;fontStyle=4;html=1;whiteSpace=wrap;fillColor=#00CCCC;" vertex="1" parent="1">
          <mxGeometry x="180" y="330" width="430" height="110" as="geometry" />
        </mxCell>
        <mxCell id="9lVelVRK41Ti5xzRwSH0-9" value="Android通信" style="text;strokeColor=none;align=center;fillColor=none;html=1;verticalAlign=middle;whiteSpace=wrap;rounded=0;" vertex="1" parent="1">
          <mxGeometry x="335" y="420" width="120" height="30" as="geometry" />
        </mxCell>
        <mxCell id="9lVelVRK41Ti5xzRwSH0-11" value="Depart" style="shape=folder;fontStyle=1;spacingTop=10;tabWidth=40;tabHeight=14;tabPosition=left;html=1;whiteSpace=wrap;" vertex="1" parent="1">
          <mxGeometry x="200" y="260" width="70" height="50" as="geometry" />
        </mxCell>
        <mxCell id="9lVelVRK41Ti5xzRwSH0-12" value="Doctor" style="shape=folder;fontStyle=1;spacingTop=10;tabWidth=40;tabHeight=14;tabPosition=left;html=1;whiteSpace=wrap;" vertex="1" parent="1">
          <mxGeometry x="280" y="260" width="70" height="50" as="geometry" />
        </mxCell>
        <mxCell id="9lVelVRK41Ti5xzRwSH0-13" value="Order" style="shape=folder;fontStyle=1;spacingTop=10;tabWidth=40;tabHeight=14;tabPosition=left;html=1;whiteSpace=wrap;" vertex="1" parent="1">
          <mxGeometry x="360" y="260" width="70" height="50" as="geometry" />
        </mxCell>
        <mxCell id="9lVelVRK41Ti5xzRwSH0-14" value="Schedule" style="shape=folder;fontStyle=1;spacingTop=10;tabWidth=40;tabHeight=14;tabPosition=left;html=1;whiteSpace=wrap;" vertex="1" parent="1">
          <mxGeometry x="440" y="260" width="70" height="50" as="geometry" />
        </mxCell>
        <mxCell id="9lVelVRK41Ti5xzRwSH0-15" value="User" style="shape=folder;fontStyle=1;spacingTop=10;tabWidth=40;tabHeight=14;tabPosition=left;html=1;whiteSpace=wrap;" vertex="1" parent="1">
          <mxGeometry x="520" y="260" width="70" height="50" as="geometry" />
        </mxCell>
        <mxCell id="9lVelVRK41Ti5xzRwSH0-16" value="Netutil" style="shape=folder;fontStyle=1;spacingTop=10;tabWidth=40;tabHeight=14;tabPosition=left;html=1;whiteSpace=wrap;" vertex="1" parent="1">
          <mxGeometry x="360" y="360" width="70" height="50" as="geometry" />
        </mxCell>
        <mxCell id="9lVelVRK41Ti5xzRwSH0-17" value="后台服务器" style="verticalAlign=top;align=left;spacingTop=8;spacingLeft=2;spacingRight=12;shape=cube;size=10;direction=south;fontStyle=4;html=1;whiteSpace=wrap;fillColor=#FF8000;" vertex="1" parent="1">
          <mxGeometry x="170" y="460" width="460" height="410" as="geometry" />
        </mxCell>
        <mxCell id="9lVelVRK41Ti5xzRwSH0-18" value="Servlet" style="verticalAlign=top;align=left;spacingTop=8;spacingLeft=2;spacingRight=12;shape=cube;size=10;direction=south;fontStyle=4;html=1;whiteSpace=wrap;fillColor=#CC6600;" vertex="1" parent="1">
          <mxGeometry x="180" y="500" width="430" height="120" as="geometry" />
        </mxCell>
        <mxCell id="9lVelVRK41Ti5xzRwSH0-19" value="预约&lt;br&gt;Servlet" style="shape=folder;fontStyle=1;spacingTop=10;tabWidth=40;tabHeight=14;tabPosition=left;html=1;whiteSpace=wrap;" vertex="1" parent="1">
          <mxGeometry x="315" y="540" width="70" height="50" as="geometry" />
        </mxCell>
        <mxCell id="9lVelVRK41Ti5xzRwSH0-20" value="登录&lt;br&gt;Servlet" style="shape=folder;fontStyle=1;spacingTop=10;tabWidth=40;tabHeight=14;tabPosition=left;html=1;whiteSpace=wrap;" vertex="1" parent="1">
          <mxGeometry x="225" y="540" width="70" height="50" as="geometry" />
        </mxCell>
        <mxCell id="9lVelVRK41Ti5xzRwSH0-21" value="支付&lt;br&gt;Servlet" style="shape=folder;fontStyle=1;spacingTop=10;tabWidth=40;tabHeight=14;tabPosition=left;html=1;whiteSpace=wrap;" vertex="1" parent="1">
          <mxGeometry x="404" y="540" width="70" height="50" as="geometry" />
        </mxCell>
        <mxCell id="9lVelVRK41Ti5xzRwSH0-22" value="信息&lt;br&gt;Servlet" style="shape=folder;fontStyle=1;spacingTop=10;tabWidth=40;tabHeight=14;tabPosition=left;html=1;whiteSpace=wrap;" vertex="1" parent="1">
          <mxGeometry x="495" y="540" width="70" height="50" as="geometry" />
        </mxCell>
        <mxCell id="9lVelVRK41Ti5xzRwSH0-23" value="Bean" style="verticalAlign=top;align=left;spacingTop=8;spacingLeft=2;spacingRight=12;shape=cube;size=10;direction=south;fontStyle=4;html=1;whiteSpace=wrap;fillColor=#CC6600;" vertex="1" parent="1">
          <mxGeometry x="180" y="740" width="430" height="110" as="geometry" />
        </mxCell>
        <mxCell id="9lVelVRK41Ti5xzRwSH0-24" value="Depart" style="shape=folder;fontStyle=1;spacingTop=10;tabWidth=40;tabHeight=14;tabPosition=left;html=1;whiteSpace=wrap;" vertex="1" parent="1">
          <mxGeometry x="200" y="780" width="70" height="50" as="geometry" />
        </mxCell>
        <mxCell id="9lVelVRK41Ti5xzRwSH0-25" value="Doctor" style="shape=folder;fontStyle=1;spacingTop=10;tabWidth=40;tabHeight=14;tabPosition=left;html=1;whiteSpace=wrap;" vertex="1" parent="1">
          <mxGeometry x="280" y="780" width="70" height="50" as="geometry" />
        </mxCell>
        <mxCell id="9lVelVRK41Ti5xzRwSH0-26" value="Order" style="shape=folder;fontStyle=1;spacingTop=10;tabWidth=40;tabHeight=14;tabPosition=left;html=1;whiteSpace=wrap;" vertex="1" parent="1">
          <mxGeometry x="360" y="780" width="70" height="50" as="geometry" />
        </mxCell>
        <mxCell id="9lVelVRK41Ti5xzRwSH0-27" value="Schedule" style="shape=folder;fontStyle=1;spacingTop=10;tabWidth=40;tabHeight=14;tabPosition=left;html=1;whiteSpace=wrap;" vertex="1" parent="1">
          <mxGeometry x="440" y="780" width="70" height="50" as="geometry" />
        </mxCell>
        <mxCell id="9lVelVRK41Ti5xzRwSH0-28" value="User" style="shape=folder;fontStyle=1;spacingTop=10;tabWidth=40;tabHeight=14;tabPosition=left;html=1;whiteSpace=wrap;" vertex="1" parent="1">
          <mxGeometry x="520" y="780" width="70" height="50" as="geometry" />
        </mxCell>
        <mxCell id="9lVelVRK41Ti5xzRwSH0-29" value="DAO" style="verticalAlign=top;align=left;spacingTop=8;spacingLeft=2;spacingRight=12;shape=cube;size=10;direction=south;fontStyle=4;html=1;whiteSpace=wrap;fillColor=#CC6600;" vertex="1" parent="1">
          <mxGeometry x="180" y="620" width="430" height="120" as="geometry" />
        </mxCell>
        <mxCell id="9lVelVRK41Ti5xzRwSH0-31" value="Depart&lt;br&gt;DAO" style="shape=folder;fontStyle=1;spacingTop=10;tabWidth=40;tabHeight=14;tabPosition=left;html=1;whiteSpace=wrap;" vertex="1" parent="1">
          <mxGeometry x="200" y="660" width="70" height="50" as="geometry" />
        </mxCell>
        <mxCell id="9lVelVRK41Ti5xzRwSH0-32" value="Doctor&lt;br&gt;DAO" style="shape=folder;fontStyle=1;spacingTop=10;tabWidth=40;tabHeight=14;tabPosition=left;html=1;whiteSpace=wrap;" vertex="1" parent="1">
          <mxGeometry x="280" y="660" width="70" height="50" as="geometry" />
        </mxCell>
        <mxCell id="9lVelVRK41Ti5xzRwSH0-33" value="Order&lt;br&gt;DAO" style="shape=folder;fontStyle=1;spacingTop=10;tabWidth=40;tabHeight=14;tabPosition=left;html=1;whiteSpace=wrap;" vertex="1" parent="1">
          <mxGeometry x="360" y="660" width="70" height="50" as="geometry" />
        </mxCell>
        <mxCell id="9lVelVRK41Ti5xzRwSH0-34" value="Schedule&lt;br&gt;DAO" style="shape=folder;fontStyle=1;spacingTop=10;tabWidth=40;tabHeight=14;tabPosition=left;html=1;whiteSpace=wrap;" vertex="1" parent="1">
          <mxGeometry x="440" y="660" width="70" height="50" as="geometry" />
        </mxCell>
        <mxCell id="9lVelVRK41Ti5xzRwSH0-35" value="User&lt;br&gt;DAO" style="shape=folder;fontStyle=1;spacingTop=10;tabWidth=40;tabHeight=14;tabPosition=left;html=1;whiteSpace=wrap;" vertex="1" parent="1">
          <mxGeometry x="520" y="660" width="70" height="50" as="geometry" />
        </mxCell>
      </root>
    </mxGraphModel>
  </diagram>
</mxfile>
